<mxfile host="app.diagrams.net" modified="2023-02-07T01:32:25.331Z" agent="5.0 (Windows NT 10.0; Win64; x64) AppleWebKit/537.36 (KHTML, like Gecko) Chrome/104.0.0.0 Safari/537.36" etag="IeWV4MxIIOyRIz0i2gLI" version="20.8.15" type="github">
  <diagram id="C5RBs43oDa-KdzZeNtuy" name="Page-1">
    <mxGraphModel dx="1434" dy="764" grid="1" gridSize="10" guides="1" tooltips="1" connect="1" arrows="1" fold="1" page="1" pageScale="1" pageWidth="827" pageHeight="1169" math="0" shadow="0">
      <root>
        <mxCell id="WIyWlLk6GJQsqaUBKTNV-0" />
        <mxCell id="WIyWlLk6GJQsqaUBKTNV-1" parent="WIyWlLk6GJQsqaUBKTNV-0" />
        <mxCell id="qM9o0R-IIa5Vl8WfX1M8-1" value="" style="whiteSpace=wrap;html=1;aspect=fixed;" vertex="1" parent="WIyWlLk6GJQsqaUBKTNV-1">
          <mxGeometry x="40" y="40" width="730" height="730" as="geometry" />
        </mxCell>
        <mxCell id="qM9o0R-IIa5Vl8WfX1M8-8" style="edgeStyle=orthogonalEdgeStyle;rounded=0;orthogonalLoop=1;jettySize=auto;html=1;exitX=1;exitY=0.5;exitDx=0;exitDy=0;entryX=0;entryY=0.5;entryDx=0;entryDy=0;" edge="1" parent="WIyWlLk6GJQsqaUBKTNV-1" source="qM9o0R-IIa5Vl8WfX1M8-2" target="qM9o0R-IIa5Vl8WfX1M8-3">
          <mxGeometry relative="1" as="geometry" />
        </mxCell>
        <mxCell id="qM9o0R-IIa5Vl8WfX1M8-2" value="pdf图纸" style="rounded=0;whiteSpace=wrap;html=1;" vertex="1" parent="WIyWlLk6GJQsqaUBKTNV-1">
          <mxGeometry x="70" y="80" width="110" height="50" as="geometry" />
        </mxCell>
        <mxCell id="qM9o0R-IIa5Vl8WfX1M8-9" style="edgeStyle=orthogonalEdgeStyle;rounded=0;orthogonalLoop=1;jettySize=auto;html=1;exitX=1;exitY=0.5;exitDx=0;exitDy=0;entryX=0;entryY=0.5;entryDx=0;entryDy=0;" edge="1" parent="WIyWlLk6GJQsqaUBKTNV-1" source="qM9o0R-IIa5Vl8WfX1M8-3" target="qM9o0R-IIa5Vl8WfX1M8-5">
          <mxGeometry relative="1" as="geometry" />
        </mxCell>
        <mxCell id="qM9o0R-IIa5Vl8WfX1M8-3" value="预处理：转换成图片格式、放大" style="rounded=0;whiteSpace=wrap;html=1;" vertex="1" parent="WIyWlLk6GJQsqaUBKTNV-1">
          <mxGeometry x="240" y="80" width="120" height="50" as="geometry" />
        </mxCell>
        <mxCell id="qM9o0R-IIa5Vl8WfX1M8-19" style="edgeStyle=orthogonalEdgeStyle;rounded=0;orthogonalLoop=1;jettySize=auto;html=1;exitX=0;exitY=0.5;exitDx=0;exitDy=0;entryX=1;entryY=0.5;entryDx=0;entryDy=0;" edge="1" parent="WIyWlLk6GJQsqaUBKTNV-1" source="qM9o0R-IIa5Vl8WfX1M8-4" target="qM9o0R-IIa5Vl8WfX1M8-14">
          <mxGeometry relative="1" as="geometry" />
        </mxCell>
        <mxCell id="qM9o0R-IIa5Vl8WfX1M8-4" value="零件图" style="rounded=0;whiteSpace=wrap;html=1;" vertex="1" parent="WIyWlLk6GJQsqaUBKTNV-1">
          <mxGeometry x="500" y="215" width="110" height="50" as="geometry" />
        </mxCell>
        <mxCell id="qM9o0R-IIa5Vl8WfX1M8-10" style="edgeStyle=orthogonalEdgeStyle;rounded=0;orthogonalLoop=1;jettySize=auto;html=1;exitX=1;exitY=0.5;exitDx=0;exitDy=0;" edge="1" parent="WIyWlLk6GJQsqaUBKTNV-1" source="qM9o0R-IIa5Vl8WfX1M8-5" target="qM9o0R-IIa5Vl8WfX1M8-6">
          <mxGeometry relative="1" as="geometry" />
        </mxCell>
        <mxCell id="qM9o0R-IIa5Vl8WfX1M8-5" value="OCR识别表格单元格内容、位置" style="rounded=0;whiteSpace=wrap;html=1;" vertex="1" parent="WIyWlLk6GJQsqaUBKTNV-1">
          <mxGeometry x="414" y="80" width="110" height="50" as="geometry" />
        </mxCell>
        <mxCell id="qM9o0R-IIa5Vl8WfX1M8-11" style="edgeStyle=orthogonalEdgeStyle;rounded=0;orthogonalLoop=1;jettySize=auto;html=1;exitX=0.5;exitY=1;exitDx=0;exitDy=0;entryX=1;entryY=0.5;entryDx=0;entryDy=0;" edge="1" parent="WIyWlLk6GJQsqaUBKTNV-1" source="qM9o0R-IIa5Vl8WfX1M8-6" target="qM9o0R-IIa5Vl8WfX1M8-4">
          <mxGeometry relative="1" as="geometry" />
        </mxCell>
        <mxCell id="qM9o0R-IIa5Vl8WfX1M8-15" style="edgeStyle=orthogonalEdgeStyle;rounded=0;orthogonalLoop=1;jettySize=auto;html=1;exitX=1;exitY=0.5;exitDx=0;exitDy=0;entryX=1;entryY=0.5;entryDx=0;entryDy=0;" edge="1" parent="WIyWlLk6GJQsqaUBKTNV-1" source="qM9o0R-IIa5Vl8WfX1M8-6" target="qM9o0R-IIa5Vl8WfX1M8-12">
          <mxGeometry relative="1" as="geometry" />
        </mxCell>
        <mxCell id="qM9o0R-IIa5Vl8WfX1M8-6" value="判断识别的内容中是否存在序号" style="rhombus;whiteSpace=wrap;html=1;" vertex="1" parent="WIyWlLk6GJQsqaUBKTNV-1">
          <mxGeometry x="570" y="62.5" width="130" height="85" as="geometry" />
        </mxCell>
        <mxCell id="qM9o0R-IIa5Vl8WfX1M8-21" style="edgeStyle=orthogonalEdgeStyle;rounded=0;orthogonalLoop=1;jettySize=auto;html=1;exitX=0;exitY=0.5;exitDx=0;exitDy=0;entryX=1;entryY=0.5;entryDx=0;entryDy=0;" edge="1" parent="WIyWlLk6GJQsqaUBKTNV-1" source="qM9o0R-IIa5Vl8WfX1M8-12" target="qM9o0R-IIa5Vl8WfX1M8-17">
          <mxGeometry relative="1" as="geometry" />
        </mxCell>
        <mxCell id="qM9o0R-IIa5Vl8WfX1M8-12" value="装配图" style="rounded=0;whiteSpace=wrap;html=1;" vertex="1" parent="WIyWlLk6GJQsqaUBKTNV-1">
          <mxGeometry x="500" y="360" width="110" height="50" as="geometry" />
        </mxCell>
        <mxCell id="qM9o0R-IIa5Vl8WfX1M8-42" style="edgeStyle=orthogonalEdgeStyle;rounded=0;orthogonalLoop=1;jettySize=auto;html=1;entryX=1;entryY=0.5;entryDx=0;entryDy=0;exitX=0;exitY=0.5;exitDx=0;exitDy=0;" edge="1" parent="WIyWlLk6GJQsqaUBKTNV-1" source="qM9o0R-IIa5Vl8WfX1M8-47" target="qM9o0R-IIa5Vl8WfX1M8-18">
          <mxGeometry relative="1" as="geometry">
            <mxPoint x="220" y="245" as="sourcePoint" />
          </mxGeometry>
        </mxCell>
        <mxCell id="qM9o0R-IIa5Vl8WfX1M8-20" style="edgeStyle=orthogonalEdgeStyle;rounded=0;orthogonalLoop=1;jettySize=auto;html=1;exitX=0;exitY=0.5;exitDx=0;exitDy=0;entryX=1;entryY=0.5;entryDx=0;entryDy=0;" edge="1" parent="WIyWlLk6GJQsqaUBKTNV-1" source="qM9o0R-IIa5Vl8WfX1M8-14" target="qM9o0R-IIa5Vl8WfX1M8-47">
          <mxGeometry relative="1" as="geometry">
            <mxPoint x="330" y="245" as="targetPoint" />
          </mxGeometry>
        </mxCell>
        <mxCell id="qM9o0R-IIa5Vl8WfX1M8-14" value="添加配置项，提取图纸标题栏信息" style="rounded=0;whiteSpace=wrap;html=1;" vertex="1" parent="WIyWlLk6GJQsqaUBKTNV-1">
          <mxGeometry x="345" y="215" width="120" height="50" as="geometry" />
        </mxCell>
        <mxCell id="qM9o0R-IIa5Vl8WfX1M8-46" style="edgeStyle=orthogonalEdgeStyle;rounded=0;orthogonalLoop=1;jettySize=auto;html=1;exitX=0;exitY=0.5;exitDx=0;exitDy=0;entryX=1;entryY=0.5;entryDx=0;entryDy=0;" edge="1" parent="WIyWlLk6GJQsqaUBKTNV-1" source="qM9o0R-IIa5Vl8WfX1M8-48" target="qM9o0R-IIa5Vl8WfX1M8-18">
          <mxGeometry relative="1" as="geometry">
            <mxPoint x="220" y="385" as="sourcePoint" />
          </mxGeometry>
        </mxCell>
        <mxCell id="qM9o0R-IIa5Vl8WfX1M8-40" style="edgeStyle=orthogonalEdgeStyle;rounded=0;orthogonalLoop=1;jettySize=auto;html=1;exitX=0;exitY=0.5;exitDx=0;exitDy=0;entryX=1;entryY=0.5;entryDx=0;entryDy=0;" edge="1" parent="WIyWlLk6GJQsqaUBKTNV-1" source="qM9o0R-IIa5Vl8WfX1M8-17" target="qM9o0R-IIa5Vl8WfX1M8-48">
          <mxGeometry relative="1" as="geometry">
            <mxPoint x="330" y="385" as="targetPoint" />
            <Array as="points">
              <mxPoint x="354" y="380" />
            </Array>
          </mxGeometry>
        </mxCell>
        <mxCell id="qM9o0R-IIa5Vl8WfX1M8-17" value="添加配置项，提取图纸标题栏、明细栏信息" style="rounded=0;whiteSpace=wrap;html=1;" vertex="1" parent="WIyWlLk6GJQsqaUBKTNV-1">
          <mxGeometry x="345" y="360" width="130" height="50" as="geometry" />
        </mxCell>
        <mxCell id="qM9o0R-IIa5Vl8WfX1M8-18" value="生成BOM表格" style="rounded=0;whiteSpace=wrap;html=1;" vertex="1" parent="WIyWlLk6GJQsqaUBKTNV-1">
          <mxGeometry x="70" y="290" width="110" height="50" as="geometry" />
        </mxCell>
        <mxCell id="qM9o0R-IIa5Vl8WfX1M8-30" value="否" style="text;strokeColor=none;align=center;fillColor=none;html=1;verticalAlign=middle;whiteSpace=wrap;rounded=0;" vertex="1" parent="WIyWlLk6GJQsqaUBKTNV-1">
          <mxGeometry x="580" y="170" width="60" height="30" as="geometry" />
        </mxCell>
        <mxCell id="qM9o0R-IIa5Vl8WfX1M8-31" value="是" style="text;strokeColor=none;align=center;fillColor=none;html=1;verticalAlign=middle;whiteSpace=wrap;rounded=0;" vertex="1" parent="WIyWlLk6GJQsqaUBKTNV-1">
          <mxGeometry x="670" y="240" width="60" height="30" as="geometry" />
        </mxCell>
        <mxCell id="qM9o0R-IIa5Vl8WfX1M8-47" value="数据库" style="shape=datastore;whiteSpace=wrap;html=1;strokeWidth=1;" vertex="1" parent="WIyWlLk6GJQsqaUBKTNV-1">
          <mxGeometry x="250" y="210" width="60" height="60" as="geometry" />
        </mxCell>
        <mxCell id="qM9o0R-IIa5Vl8WfX1M8-48" value="数据库" style="shape=datastore;whiteSpace=wrap;html=1;strokeWidth=1;" vertex="1" parent="WIyWlLk6GJQsqaUBKTNV-1">
          <mxGeometry x="250" y="350" width="60" height="60" as="geometry" />
        </mxCell>
      </root>
    </mxGraphModel>
  </diagram>
</mxfile>
